<?xml version="1.0" encoding="UTF-8"?>
<svg version="1.1" xmlns="http://www.w3.org/2000/svg" width="500" height="500">
<path d="M0 0 C0 0.66 0 1.32 0 2 C0.66 2.185625 1.32 2.37125 2 2.5625 C6.26905268 4.60808774 9.74163706 7.57184643 13 11 C13 11.66 13 12.32 13 13 C13.66 13 14.32 13 15 13 C15 13.66 15 14.32 15 15 C15.66 15 16.32 15 17 15 C18.54962215 16.81720396 20.01580263 18.70605872 21.4375 20.625 C22.21996094 21.66914063 23.00242187 22.71328125 23.80859375 23.7890625 C25.85420785 26.78637941 27.45291978 29.72461016 29 33 C29.41121094 33.78761719 29.82242188 34.57523438 30.24609375 35.38671875 C41.46446841 57.05105539 44.69560007 81.67586783 37.29980469 105.22998047 C35.38610594 110.89284374 33.20130915 116.44421079 31 122 C30.34811865 123.68457114 29.69708232 125.36946952 29.046875 127.0546875 C23.77923249 140.58889723 18.29186547 154.20417576 10.51953125 166.5234375 C8.9914502 169.01393464 7.57842831 171.53996839 6.1875 174.109375 C5.66397949 175.07472168 5.14045898 176.04006836 4.60107422 177.03466797 C3.09031211 179.83273393 1.58019274 182.63114559 0.0703125 185.4296875 C-4.81776364 194.47913434 -9.73695049 203.44661707 -15.21875 212.15234375 C-16.97842132 214.96550251 -18.65452317 217.81341281 -20.3125 220.6875 C-27.37158611 232.84392163 -34.64635722 244.79052799 -42.78613281 256.25634766 C-44.18773327 258.26966834 -45.543837 260.31024406 -46.8984375 262.35546875 C-47.39279297 263.09522949 -47.88714844 263.83499023 -48.39648438 264.59716797 C-49.36653586 266.05064339 -50.32906005 267.50917675 -51.28320312 268.97314453 C-52.44601077 270.70245912 -53.71521926 272.35927181 -55 274 C-55.99 274 -56.98 274 -58 274 C-59.4296875 272.34765625 -59.4296875 272.34765625 -60.875 270.0625 C-61.4009375 269.23621094 -61.926875 268.40992188 -62.46875 267.55859375 C-63.83543666 265.2749719 -65.11936306 262.97083523 -66.375 260.625 C-68.2686317 257.12208385 -70.42131227 253.99608912 -72.8125 250.8125 C-76.24308323 246.19984314 -79.14262809 241.41385943 -81.93115234 236.40136719 C-84.28837383 232.18558921 -86.79734702 228.10658912 -89.4375 224.0625 C-93.80751412 217.36111923 -97.93133299 210.52996645 -102.01269531 203.64990234 C-102.86664904 202.22284515 -103.74015766 200.80752377 -104.6171875 199.39453125 C-108.02025568 193.90363475 -110.92583845 188.22102679 -113.7668457 182.42578125 C-116.26380605 177.37006327 -118.96129269 172.46207313 -121.75 167.5625 C-130.69831776 151.71564541 -138.79165874 135.11940809 -145 118 C-145.26006836 117.29858887 -145.52013672 116.59717773 -145.78808594 115.87451172 C-150.87395601 102.05160806 -153.64273012 88.84499238 -153 74 C-152.97035156 72.91203125 -152.94070312 71.8240625 -152.91015625 70.703125 C-152.28289394 56.93395234 -148.08906083 45.2187154 -142 33 C-141.34 33 -140.68 33 -140 33 C-139.72800781 32.26652344 -139.45601562 31.53304687 -139.17578125 30.77734375 C-136.39624406 24.21172601 -131.81984257 18.22149612 -127 13 C-126.34 13 -125.68 13 -125 13 C-125 12.34 -125 11.68 -125 11 C-124.34 11 -123.68 11 -123 11 C-123 10.34 -123 9.68 -123 9 C-121.1015625 7.2734375 -121.1015625 7.2734375 -118.625 5.375 C-117.81289062 4.74335937 -117.00078125 4.11171875 -116.1640625 3.4609375 C-114 2 -114 2 -112 2 C-112 1.34 -112 0.68 -112 0 C-82.31659459 -25.56071021 -30.60790285 -20.40526856 0 0 Z M-90.1796875 46.72265625 C-99.72666842 58.66662594 -101.39111704 71.22160131 -100 86 C-97.97355116 95.68957336 -93.07120491 102.26972818 -86 109 C-85.484375 109.51175781 -84.96875 110.02351563 -84.4375 110.55078125 C-75.91286923 118.37309869 -64.78048724 121.5113015 -53.4765625 121.31640625 C-44.17197706 120.46958443 -35.84358581 116.94530992 -28 112 C-28 111.34 -28 110.68 -28 110 C-27.34 110 -26.68 110 -26 110 C-26 109.34 -26 108.68 -26 108 C-25.01 107.67 -24.02 107.34 -23 107 C-17.91625037 101.17063376 -15.32323484 94.26755513 -13 87 C-12.67 86.01 -12.34 85.02 -12 84 C-11.05349663 69.14717789 -13.39093152 56.84297148 -23.3125 45.3125 C-24.199375 44.549375 -25.08625 43.78625 -26 43 C-26.61230469 42.43539062 -27.22460938 41.87078125 -27.85546875 41.2890625 C-37.06918191 33.33405333 -47.46101463 31.30239358 -59.42578125 31.68359375 C-71.65979837 32.7666051 -81.72137135 37.80204347 -90.1796875 46.72265625 Z " fill="#DC2229" transform="translate(306,121)"/>
<path d="M0 0 C-6.435 2.97 -6.435 2.97 -13 6 C-11.02 6.33 -9.04 6.66 -7 7 C-7 7.66 -7 8.32 -7 9 C-6.2575 8.979375 -5.515 8.95875 -4.75 8.9375 C-2 9 -2 9 -0.25390625 9.625 C3.08838566 10.18108323 5.59148657 9.06421831 8.8125 8.0625 C24.25120962 3.79202546 40.98895631 4.54306517 56 10 C57.02996094 10.36222656 58.05992187 10.72445312 59.12109375 11.09765625 C75.89441121 17.53215384 90.98967167 28.95506536 101 44 C101 44.66 101 45.32 101 46 C100.34 46 99.68 46 99 46 C97.58984375 44.53125 97.58984375 44.53125 95.9375 42.5 C83.02996549 27.43677416 64.37617724 18.00676055 44.5 16.16015625 C20.74702245 14.63848113 -1.41843291 20.74020432 -19.4375 36.5 C-20.97952826 37.97820258 -22.50155045 39.47763902 -24 41 C-24.70640625 41.70769531 -25.4128125 42.41539062 -26.140625 43.14453125 C-35.03897512 52.56931048 -40.84863246 64.0136859 -44.125 76.5 C-44.45757812 77.7478125 -44.79015625 78.995625 -45.1328125 80.28125 C-49.72840427 99.98847235 -45.34368256 118.25215244 -39 137 C-40.5 135.625 -40.5 135.625 -42 134 C-42 133.34 -42 132.68 -42 132 C-42.66 132 -43.32 132 -44 132 C-43.505 133.98 -43.505 133.98 -43 136 C-43.66 136 -44.32 136 -45 136 C-45 136.66 -45 137.32 -45 138 C-46.32 138.33 -47.64 138.66 -49 139 C-48.319375 140.051875 -47.63875 141.10375 -46.9375 142.1875 C-45.3643405 144.90327009 -44.97487487 145.70477974 -45.25 148.9375 C-45.4975 149.618125 -45.745 150.29875 -46 151 C-45.01 151 -44.02 151 -43 151 C-43 151.99 -43 152.98 -43 154 C-42.34 154 -41.68 154 -41 154 C-41.33 155.65 -41.66 157.3 -42 159 C-41.01 159.33 -40.02 159.66 -39 160 C-39.99 161.98 -39.99 161.98 -41 164 C-46.76485228 152.16066984 -52.45028482 140.36953816 -57 128 C-57.39445313 126.93918213 -57.39445313 126.93918213 -57.796875 125.85693359 C-62.87849346 112.04128341 -65.64234043 98.83599186 -65 84 C-64.97035156 82.91203125 -64.94070312 81.8240625 -64.91015625 80.703125 C-64.28289394 66.93395234 -60.08906083 55.2187154 -54 43 C-53.34 43 -52.68 43 -52 43 C-51.72800781 42.26652344 -51.45601562 41.53304687 -51.17578125 40.77734375 C-48.39624406 34.21172601 -43.81984257 28.22149612 -39 23 C-38.34 23 -37.68 23 -37 23 C-37 22.34 -37 21.68 -37 21 C-36.34 21 -35.68 21 -35 21 C-35 20.34 -35 19.68 -35 19 C-33.1015625 17.2734375 -33.1015625 17.2734375 -30.625 15.375 C-29.40683594 14.42753906 -29.40683594 14.42753906 -28.1640625 13.4609375 C-26 12 -26 12 -24 12 C-24 11.34 -24 10.68 -24 10 C-18.42688991 5.20093298 -7.35275301 -2.45091767 0 0 Z " fill="#F04643" transform="translate(218,111)"/>
<path d="M0 0 C0.7425 0.2475 1.485 0.495 2.25 0.75 C0.90679616 6.79441728 -1.3931035 10.74144876 -5.375 15.5 C-15.99051221 28.75536904 -21.99739079 44.81629272 -22.75 61.75 C-22.81445312 62.87019531 -22.87890625 63.99039063 -22.9453125 65.14453125 C-23.33195095 77.24631463 -20.94236797 88.78475092 -16.9375 100.1875 C-15.75 103.75 -15.75 103.75 -16.75 106.75 C-17.74 106.75 -18.73 106.75 -19.75 106.75 C-19.87375 107.36875 -19.9975 107.9875 -20.125 108.625 C-20.75 110.75 -20.75 110.75 -22.75 112.75 C-22.75 111.76 -22.75 110.77 -22.75 109.75 C-23.74 109.42 -24.73 109.09 -25.75 108.75 C-26.70141602 106.94677734 -26.70141602 106.94677734 -27.50390625 104.5859375 C-27.80031006 103.7182373 -28.09671387 102.85053711 -28.40209961 101.95654297 C-28.70253174 101.02213379 -29.00296387 100.08772461 -29.3125 99.125 C-29.6226001 98.17383301 -29.9327002 97.22266602 -30.25219727 96.24267578 C-33.8268773 84.87835163 -35.26607175 73.6695926 -34.75 61.75 C-34.72035156 60.66203125 -34.69070312 59.5740625 -34.66015625 58.453125 C-34.03289394 44.68395234 -29.83906083 32.9687154 -23.75 20.75 C-23.09 20.75 -22.43 20.75 -21.75 20.75 C-21.37875 19.574375 -21.37875 19.574375 -21 18.375 C-19.5675952 15.36694992 -18.7190761 14.99509643 -15.75 13.75 C-15.42 13.09 -15.09 12.43 -14.75 11.75 C-14.09 11.75 -13.43 11.75 -12.75 11.75 C-12.5025 11.1725 -12.255 10.595 -12 10 C-10.56472917 7.4165125 -8.89852606 5.77214217 -6.75 3.75 C-6.110625 2.986875 -5.47125 2.22375 -4.8125 1.4375 C-2.75 -0.25 -2.75 -0.25 0 0 Z " fill="#DF2E33" transform="translate(187.75,133.25)"/>
<path d="M0 0 C-6.435 2.97 -6.435 2.97 -13 6 C-11.02 6.33 -9.04 6.66 -7 7 C-7 7.66 -7 8.32 -7 9 C-6.21625 8.938125 -5.4325 8.87625 -4.625 8.8125 C-3.75875 8.874375 -2.8925 8.93625 -2 9 C-1.34 9.99 -0.68 10.98 0 12 C-3.3 12.99 -6.6 13.98 -10 15 C-10 15.66 -10 16.32 -10 17 C-10.70125 17.35191406 -11.4025 17.70382813 -12.125 18.06640625 C-18.51218144 21.3901705 -23.82687541 24.98992518 -29 30 C-30 27 -30 27 -29.0625 24.8125 C-28.5365625 23.9153125 -28.5365625 23.9153125 -28 23 C-29.65 22.67 -31.3 22.34 -33 22 C-33.37125 22.9590625 -33.37125 22.9590625 -33.75 23.9375 C-35.32987939 26.544301 -36.16780311 26.29195078 -39 27 C-40.18330183 28.86644906 -40.18330183 28.86644906 -41 31 C-41.66 31.99 -42.32 32.98 -43 34 C-43.66 34 -44.32 34 -45 34 C-45.33 34.99 -45.66 35.98 -46 37 C-47.485 37.495 -47.485 37.495 -49 38 C-47.59983383 33.95264468 -45.6818763 31.01519578 -43 27.6875 C-42.29875 26.80449219 -41.5975 25.92148438 -40.875 25.01171875 C-39.946875 24.01591797 -39.946875 24.01591797 -39 23 C-38.34 23 -37.68 23 -37 23 C-37 22.34 -37 21.68 -37 21 C-36.34 21 -35.68 21 -35 21 C-35 20.34 -35 19.68 -35 19 C-33.1015625 17.2734375 -33.1015625 17.2734375 -30.625 15.375 C-29.81289062 14.74335937 -29.00078125 14.11171875 -28.1640625 13.4609375 C-26 12 -26 12 -24 12 C-24 11.34 -24 10.68 -24 10 C-18.42688991 5.20093298 -7.35275301 -2.45091767 0 0 Z " fill="#DD2128" transform="translate(218,111)"/>
<path d="M0 0 C0.7425 0.2475 1.485 0.495 2.25 0.75 C0.87445112 6.93996997 -1.75300308 11.37876576 -5.6875 16.3125 C-6.57173427 17.43870813 -7.45585168 18.56500801 -8.33984375 19.69140625 C-9.13519531 20.70074219 -9.93054688 21.71007812 -10.75 22.75 C-11.28753906 23.54277344 -11.82507813 24.33554688 -12.37890625 25.15234375 C-12.83136719 25.67957031 -13.28382813 26.20679688 -13.75 26.75 C-14.74 26.75 -15.73 26.75 -16.75 26.75 C-16.42 24.77 -16.09 22.79 -15.75 20.75 C-16.74 21.08 -17.73 21.41 -18.75 21.75 C-19.08663062 18.04706315 -19.22736015 16.35465619 -16.875 13.375 C-14.75 11.75 -14.75 11.75 -12.75 11.75 C-12.5025 11.1725 -12.255 10.595 -12 10 C-10.56472917 7.4165125 -8.89852606 5.77214217 -6.75 3.75 C-6.110625 2.986875 -5.47125 2.22375 -4.8125 1.4375 C-2.75 -0.25 -2.75 -0.25 0 0 Z " fill="#DF2026" transform="translate(187.75,133.25)"/>
<path d="M0 0 C0.66 0 1.32 0 2 0 C3.31626692 3.61973402 4 6.09567131 4 10 C3.34 10 2.68 10 2 10 C2 10.66 2 11.32 2 12 C0.68 12.33 -0.64 12.66 -2 13 C-1.319375 14.051875 -0.63875 15.10375 0.0625 16.1875 C1.6356595 18.90327009 2.02512513 19.70477974 1.75 22.9375 C1.5025 23.618125 1.255 24.29875 1 25 C1.99 25 2.98 25 4 25 C4 25.99 4 26.98 4 28 C4.66 28 5.32 28 6 28 C5.67 29.65 5.34 31.3 5 33 C5.99 33.33 6.98 33.66 8 34 C7.34 35.32 6.68 36.64 6 38 C4.39353605 34.64692897 2.79024823 31.29234852 1.1875 27.9375 C0.50977539 26.52307617 0.50977539 26.52307617 -0.18164062 25.08007812 C-7.08048212 10.62776054 -7.08048212 10.62776054 -6.6875 7.5625 C-6.460625 7.046875 -6.23375 6.53125 -6 6 C-5.34 6 -4.68 6 -4 6 C-3.67 5.01 -3.34 4.02 -3 3 C-2.01 3 -1.02 3 0 3 C0 2.01 0 1.02 0 0 Z " fill="#DF3338" transform="translate(171,237)"/>
<path d="M0 0 C0.33 0 0.66 0 1 0 C3.58165045 15.4899027 2.23668041 31.2006858 -3 46 C-5 43 -5 43 -4.6875 40 C-4 37 -4 37 -3 34 C-2.78052866 32.50434343 -2.59535789 31.00340851 -2.4375 29.5 C-2.31181641 28.33984375 -2.31181641 28.33984375 -2.18359375 27.15625 C-1.95758102 24.86247794 -1.95758102 24.86247794 -2 22 C-1.67 21.67 -1.34 21.34 -1 21 C-0.84313751 19.44051458 -0.74923361 17.87457332 -0.68359375 16.30859375 C-0.64169922 15.36435547 -0.59980469 14.42011719 -0.55664062 13.44726562 C-0.49766602 11.95743164 -0.49766602 11.95743164 -0.4375 10.4375 C-0.39431641 9.44041016 -0.35113281 8.44332031 -0.30664062 7.41601562 C-0.20019702 4.9441585 -0.09818072 2.4721969 0 0 Z " fill="#D9777C" transform="translate(345,184)"/>
<path d="M0 0 C-1.18078125 0.51949219 -2.3615625 1.03898437 -3.578125 1.57421875 C-5.13572879 2.2779554 -6.69300337 2.98242104 -8.25 3.6875 C-9.02730469 4.02716797 -9.80460937 4.36683594 -10.60546875 4.71679688 C-15.26165396 6.84590721 -18.00353366 8.70233859 -21 13 C-21.639375 13.144375 -22.27875 13.28875 -22.9375 13.4375 C-25.39981974 13.89753011 -25.39981974 13.89753011 -27.5 17 C-30.07539082 20.09046899 -30.41046525 20.25733764 -34 21 C-35.28436734 22.9837767 -35.28436734 22.9837767 -36 25 C-36.99 25 -37.98 25 -39 25 C-39 24.34 -39 23.68 -39 23 C-38.34 23 -37.68 23 -37 23 C-37 22.34 -37 21.68 -37 21 C-36.34 21 -35.68 21 -35 21 C-35 20.34 -35 19.68 -35 19 C-33.1015625 17.2734375 -33.1015625 17.2734375 -30.625 15.375 C-29.40683594 14.42753906 -29.40683594 14.42753906 -28.1640625 13.4609375 C-26 12 -26 12 -24 12 C-24 11.34 -24 10.68 -24 10 C-18.42688991 5.20093298 -7.35275301 -2.45091767 0 0 Z " fill="#EA9CA0" transform="translate(218,111)"/>
<path d="M0 0 C0.33 0.66 0.66 1.32 1 2 C-0.214169 4.35817245 -1.47827738 6.56492932 -2.875 8.8125 C-3.27976562 9.47451416 -3.68453125 10.13652832 -4.1015625 10.81860352 C-8.14747334 17.36745341 -12.3582944 23.85595665 -17 30 C-17.33 30 -17.66 30 -18 30 C-18 28.02 -18 26.04 -18 24 C-17.34 24 -16.68 24 -16 24 C-15.67 22.35 -15.34 20.7 -15 19 C-14.01 19 -13.02 19 -12 19 C-11.34 17.02 -10.68 15.04 -10 13 C-9.01 13 -8.02 13 -7 13 C-6.34 9.7 -5.68 6.4 -5 3 C-3.68 3 -2.36 3 -1 3 C-0.67 2.01 -0.34 1.02 0 0 Z " fill="#D1696D" transform="translate(279,349)"/>
<path d="M0 0 C0.66 0 1.32 0 2 0 C1.97905273 0.6391333 1.95810547 1.2782666 1.93652344 1.93676758 C1.10514677 17.48123281 1.10514677 17.48123281 5.22265625 32.20703125 C5.47917969 32.79871094 5.73570312 33.39039063 6 34 C5.67 34.66 5.34 35.32 5 36 C4.34 36 3.68 36 3 36 C2.34 34.35 1.68 32.7 1 31 C0.67 31 0.34 31 0 31 C-0.80323194 27.46881054 -1.12836776 24.20459257 -1.1328125 20.5859375 C-1.13410156 19.57789063 -1.13539063 18.56984375 -1.13671875 17.53125 C-1.13285156 16.4896875 -1.12898437 15.448125 -1.125 14.375 C-1.12886719 13.32570312 -1.13273438 12.27640625 -1.13671875 11.1953125 C-1.13542969 10.18984375 -1.13414062 9.184375 -1.1328125 8.1484375 C-1.13168457 7.23239746 -1.13055664 6.31635742 -1.12939453 5.37255859 C-1 3 -1 3 0 0 Z " fill="#E18186" transform="translate(205,184)"/>
<path d="M0 0 C0.99 0 1.98 0 3 0 C3 0.66 3 1.32 3 2 C12.24 2 21.48 2 31 2 C31 2.33 31 2.66 31 3 C29.56720703 3.05607422 29.56720703 3.05607422 28.10546875 3.11328125 C16.93967638 3.6810334 7.72790575 5.20465189 -2 11 C-2.66 10.67 -3.32 10.34 -4 10 C-3.67 9.34 -3.34 8.68 -3 8 C-2.34 8 -1.68 8 -1 8 C-1.020625 6.865625 -1.04125 5.73125 -1.0625 4.5625 C-1 1 -1 1 0 0 Z " fill="#E6777B" transform="translate(227,150)"/>
<path d="M0 0 C0 3.28247431 -0.33076673 3.82566967 -2.1875 6.35546875 C-2.63867188 6.97744141 -3.08984375 7.59941406 -3.5546875 8.24023438 C-4.03164062 8.88283203 -4.50859375 9.52542969 -5 10.1875 C-5.47695312 10.84169922 -5.95390625 11.49589844 -6.4453125 12.16992188 C-7.62389275 13.78457682 -8.81113182 15.39290497 -10 17 C-13.0120432 14.13488574 -14.67585611 11.97243168 -16 8 C-13.525 9.485 -13.525 9.485 -11 11 C-10.67 9.02 -10.34 7.04 -10 5 C-7.69 5 -5.38 5 -3 5 C-3 3.68 -3 2.36 -3 1 C-2.01 0.67 -1.02 0.34 0 0 Z " fill="#C92D33" transform="translate(260,379)"/>
<path d="M0 0 C1.77111844 0.47811177 3.54188483 0.9575278 5.3125 1.4375 C6.29863281 1.70433594 7.28476563 1.97117188 8.30078125 2.24609375 C10.21517526 2.78079425 12.11433615 3.37144538 14 4 C21.06515051 4.32861165 28.01522343 4.09565123 35 3 C33 6 33 6 30.88671875 6.6875 C27.18701943 7.08800872 23.52663056 7.06722408 19.8125 7 C14.75744993 6.69192307 14.75744993 6.69192307 10 8 C9.4225 7.525625 8.845 7.05125 8.25 6.5625 C6.07417916 5.0515133 4.57397552 4.45963849 2 4 C2 3.34 2 2.68 2 2 C1.34 2 0.68 2 0 2 C0 1.34 0 0.68 0 0 Z " fill="#DD6469" transform="translate(229,237)"/>
<path d="M0 0 C3.40107988 0.27357864 6.68878287 1.19348569 10 2 C11.155 2.268125 12.31 2.53625 13.5 2.8125 C18.24099365 4.42105142 22.57797134 6.6688702 27 9 C26.01 9.495 26.01 9.495 25 10 C22.96855359 9.06553465 20.96466413 8.06775224 19 7 C19 7.66 19 8.32 19 9 C17.68 8.67 16.36 8.34 15 8 C15 8.66 15 9.32 15 10 C14.34 10 13.68 10 13 10 C13.33 8.68 13.66 7.36 14 6 C11.03 5.505 11.03 5.505 8 5 C8 4.34 8 3.68 8 3 C7.01 3.33 6.02 3.66 5 4 C2.64811553 3.40206327 0.31074405 2.74118205 -2 2 C-1.34 1.34 -0.68 0.68 0 0 Z " fill="#E4787D" transform="translate(270,107)"/>
<path d="M0 0 C0.99 0.33 1.98 0.66 3 1 C1.62394084 5.76551013 -0.46778066 9.7248553 -3.125 13.875 C-3.49753906 14.46796875 -3.87007813 15.0609375 -4.25390625 15.671875 C-5.16365 17.1181343 -6.08103798 18.55958046 -7 20 C-9.62386487 16.93882432 -10 16.26826873 -10 12 C-7.05721961 9.71117081 -4.53882795 8.17960932 -1 7 C-0.67 4.69 -0.34 2.38 0 0 Z " fill="#C93940" transform="translate(300,309)"/>
<path d="M0 0 C0.54269531 0.433125 1.08539063 0.86625 1.64453125 1.3125 C2.35996094 1.869375 3.07539063 2.42625 3.8125 3 C4.52019531 3.556875 5.22789062 4.11375 5.95703125 4.6875 C8.01595999 6.27025683 8.01595999 6.27025683 11 6 C11.33 9.96 11.66 13.92 12 18 C6.87217161 13.49372656 3.31840053 7.93869374 0 2 C0 1.34 0 0.68 0 0 Z " fill="#D04B50" transform="translate(228,362)"/>
<path d="M0 0 C0.33 0 0.66 0 1 0 C1.268125 1.258125 1.53625 2.51625 1.8125 3.8125 C3.67431444 13.21259684 3.67431444 13.21259684 7.09375 22.07421875 C8 24 8 24 8 28 C9.32 28 10.64 28 12 28 C11.42655063 30.86724686 11.1385485 31.8614515 9 34 C7.69588891 30.54623533 6.40908552 27.08625475 5.125 23.625 C4.76019531 22.65949219 4.39539063 21.69398438 4.01953125 20.69921875 C1.77611666 14.62160467 -0.35996175 8.4854001 -1 2 C-0.67 1.34 -0.34 0.68 0 0 Z " fill="#CD363F" transform="translate(156,212)"/>
<path d="M0 0 C0.33 0.66 0.66 1.32 1 2 C-0.07518118 4.44332726 -1.19808566 6.76754523 -2.4375 9.125 C-2.77587891 9.78371094 -3.11425781 10.44242187 -3.46289062 11.12109375 C-4.30149926 12.75106547 -5.14984811 14.37601909 -6 16 C-6.99 16 -7.98 16 -9 16 C-9 16.99 -9 17.98 -9 19 C-10.98 19.99 -10.98 19.99 -13 21 C-11.8141763 17.62496331 -10.72426311 15.35277269 -8 13 C-8.99 12.67 -9.98 12.34 -11 12 C-8.8614515 9.8614515 -7.86724686 9.57344937 -5 9 C-4.9175 7.88625 -4.835 6.7725 -4.75 5.625 C-4 2 -4 2 -1.9375 0.5625 C-1.298125 0.376875 -0.65875 0.19125 0 0 Z " fill="#C7232B" transform="translate(326,262)"/>
<path d="M0 0 C5.74504249 5.30311615 5.74504249 5.30311615 6 9 C5.67 9.66 5.34 10.32 5 11 C5.99 11 6.98 11 8 11 C8 11.99 8 12.98 8 14 C8.66 14 9.32 14 10 14 C9.67 15.65 9.34 17.3 9 19 C9.99 19.33 10.98 19.66 12 20 C11.34 21.32 10.68 22.64 10 24 C8.32386272 20.56703905 6.66074303 17.12793117 5 13.6875 C4.52304688 12.71103516 4.04609375 11.73457031 3.5546875 10.72851562 C3.10351562 9.79072266 2.65234375 8.85292969 2.1875 7.88671875 C1.76855469 7.02264404 1.34960938 6.15856934 0.91796875 5.26831055 C0 3 0 3 0 0 Z " fill="#E2787B" transform="translate(167,251)"/>
<path d="M0 0 C3.78571429 4.54285714 3.78571429 4.54285714 4.9375 7 C6.00305323 9.26039877 6.00305323 9.26039877 8.5625 11.4375 C11.20169749 14.21204095 11.42509603 15.35894154 12 19 C12.53625 19.515625 13.0725 20.03125 13.625 20.5625 C14.07875 21.036875 14.5325 21.51125 15 22 C14.5859375 24.08984375 14.5859375 24.08984375 14 26 C11.6836562 22.24916918 9.37400397 18.49433563 7.06933594 14.73632812 C6.09754881 13.15839432 5.11573077 11.58664919 4.1328125 10.015625 C3.59398437 9.14421875 3.05515625 8.2728125 2.5 7.375 C1.77296875 6.21097656 1.77296875 6.21097656 1.03125 5.0234375 C0 3 0 3 0 0 Z " fill="#EEA3A7" transform="translate(197,310)"/>
<path d="M0 0 C0.99 0 1.98 0 3 0 C9 10.2 9 10.2 9 14 C9.99 14.33 10.98 14.66 12 15 C12.33 16.98 12.66 18.96 13 21 C9.54548678 17.74489415 7.29835753 13.94820595 4.8125 9.9375 C4.34908203 9.20466797 3.88566406 8.47183594 3.40820312 7.71679688 C2.97056641 7.01490234 2.53292969 6.31300781 2.08203125 5.58984375 C1.48225464 4.62872681 1.48225464 4.62872681 0.87036133 3.64819336 C0 2 0 2 0 0 Z " fill="#E17D82" transform="translate(212,336)"/>
<path d="M0 0 C0.625 1.8125 0.625 1.8125 1 4 C-1 7 -1 7 -4 9 C-4.70381157 10.98723268 -5.3711811 12.98777953 -6 15 C-6.66 15.66 -7.32 16.32 -8 17 C-8.82341154 14.69444768 -9.24150171 13.52015752 -8.1875 11.25 C-7.795625 10.5075 -7.40375 9.765 -7 9 C-6.64362633 7.60987065 -6.31210617 6.2132325 -6 4.8125 C-5.67 3.554375 -5.34 2.29625 -5 1 C-3 0 -3 0 0 0 Z " fill="#C6262B" transform="translate(279,345)"/>
<path d="M0 0 C2.125 0.375 2.125 0.375 4 1 C3.34 1 2.68 1 2 1 C2 2.98 2 4.96 2 7 C1.34 7 0.68 7 0 7 C0 8.98 0 10.96 0 13 C-1.32 13.33 -2.64 13.66 -4 14 C-5.1406356 10.57809319 -4.83489425 9.73829769 -3.6875 6.4375 C-3.42324219 5.65246094 -3.15898437 4.86742187 -2.88671875 4.05859375 C-2 2 -2 2 0 0 Z " fill="#C92426" transform="translate(261,366)"/>
<path d="M0 0 C0.99 0 1.98 0 3 0 C1.60275546 3.66610354 -0.01944206 7.1061628 -1.875 10.5625 C-2.61363281 11.95662109 -2.61363281 11.95662109 -3.3671875 13.37890625 C-4.99627164 15.994015 -6.7398589 17.92086587 -9 20 C-9.33 18.68 -9.66 17.36 -10 16 C-9.34 16 -8.68 16 -8 16 C-8 15.01 -8 14.02 -8 13 C-7.34 13 -6.68 13 -6 13 C-6 12.34 -6 11.68 -6 11 C-5.525625 10.566875 -5.05125 10.13375 -4.5625 9.6875 C-2.58616914 7.55306267 -2.38336764 5.83692053 -2 3 C-1.34 3 -0.68 3 0 3 C0 2.01 0 1.02 0 0 Z " fill="#E09194" transform="translate(289,329)"/>
<path d="M0 0 C3.40312738 1.05875074 6.01353231 2.00902154 9 4 C9 4.66 9 5.32 9 6 C9.99 6.33 10.98 6.66 12 7 C11.34 7.66 10.68 8.32 10 9 C10 8.34 10 7.68 10 7 C6.39007621 7.65585189 6.39007621 7.65585189 3 9 C2.67 6.69 2.34 4.38 2 2 C1.01 1.67 0.02 1.34 -1 1 C-0.67 0.67 -0.34 0.34 0 0 Z " fill="#DF6970" transform="translate(297,117)"/>
<path d="M0 0 C0.66 0.66 1.32 1.32 2 2 C2.45375 2.45117188 2.9075 2.90234375 3.375 3.3671875 C4.57270888 4.5706546 5.75849246 5.78601839 6.9375 7.0078125 C10.39400985 10.55597224 13.51279187 13.75639593 18 16 C16 17 16 17 13.8125 16.5625 C10.19359326 14.55199626 8.12134771 11.8829211 5.55078125 8.6796875 C5.03902344 8.12539062 4.52726563 7.57109375 4 7 C3.34 7 2.68 7 2 7 C0 4 0 4 0 0 Z " fill="#E9999C" transform="translate(211,220)"/>
<path d="M0 0 C0.99 0 1.98 0 3 0 C2.67 4.62 2.34 9.24 2 14 C0 13 0 13 -1 10 C-1.99 10.66 -2.98 11.32 -4 12 C-2.66666667 8 -1.33333333 4 0 0 Z " fill="#CB2125" transform="translate(341,208)"/>
<path d="M0 0 C0.66 0 1.32 0 2 0 C2 0.66 2 1.32 2 2 C2.66 2 3.32 2 4 2 C5.62356346 3.96937661 7.13559566 5.93345148 8.625 8 C9.25535156 8.85851562 9.25535156 8.85851562 9.8984375 9.734375 C10.93805801 11.15203933 11.96977591 12.57549262 13 14 C12.67 14.66 12.34 15.32 12 16 C9.14832279 13.23219565 6.39619213 10.40328055 3.75 7.4375 C3.24984375 6.87933594 2.7496875 6.32117188 2.234375 5.74609375 C0.88407587 3.83601872 0.4199406 2.28467682 0 0 Z " fill="#E89399" transform="translate(319,134)"/>
<path d="M0 0 C0.61328125 1.828125 0.61328125 1.828125 1 4 C-0.8125 6.75 -0.8125 6.75 -3 9 C-3.66 9 -4.32 9 -5 9 C-5.33 9.99 -5.66 10.98 -6 12 C-6.99 12.33 -7.98 12.66 -9 13 C-7.47987323 7.59510481 -3.72614782 4.01507372 0 0 Z " fill="#E17C7F" transform="translate(178,136)"/>
<path d="M0 0 C0.33 0.66 0.66 1.32 1 2 C-0.36248634 4.60379711 -1.77203662 7.06764427 -3.3125 9.5625 C-3.72951172 10.26052734 -4.14652344 10.95855469 -4.57617188 11.67773438 C-7.73114111 16.86557056 -7.73114111 16.86557056 -10 18 C-8.87548273 15.0280615 -7.77706209 12.66559313 -6 10 C-5.60612212 7.67612053 -5.26513915 5.34206251 -5 3 C-3.68 3 -2.36 3 -1 3 C-0.67 2.01 -0.34 1.02 0 0 Z " fill="#ECB1B3" transform="translate(279,349)"/>
<path d="M0 0 C1.65 0.33 3.3 0.66 5 1 C4.06409496 2.1055189 3.12620142 3.20935453 2.1875 4.3125 C1.66542969 4.92738281 1.14335937 5.54226562 0.60546875 6.17578125 C-0.87172469 7.85424679 -2.40039131 9.43882034 -4 11 C-4 9.02 -4 7.04 -4 5 C-3.01 4.67 -2.02 4.34 -1 4 C-0.26676204 1.98491642 -0.26676204 1.98491642 0 0 Z " fill="#DF6168" transform="translate(217,161)"/>
<path d="M0 0 C1.65 0.99 3.3 1.98 5 3 C5.33 2.34 5.66 1.68 6 1 C6 1.66 6 2.32 6 3 C7.32 2.67 8.64 2.34 10 2 C8.75023244 5.65316671 8.32901247 6.78065836 5 9 C4.16094435 7.87926138 3.32892169 6.75325453 2.5 5.625 C2.0359375 4.99851562 1.571875 4.37203125 1.09375 3.7265625 C0 2 0 2 0 0 Z " fill="#DD8B8D" transform="translate(244,387)"/>
<path d="M0 0 C1.79123143 3.58246285 0.43060401 7.60053697 -0.703125 11.28515625 C-1.22895229 12.82912953 -1.7613748 14.37087443 -2.30078125 15.91015625 C-3.08239613 18.24626775 -3.60786356 20.56875406 -4 23 C-4.33 23 -4.66 23 -5 23 C-5.62187044 15.22661946 -3.4773778 8.33264031 -1 1 C-0.67 0.67 -0.34 0.34 0 0 Z " fill="#F5C8C5" transform="translate(159,166)"/>
<path d="M0 0 C2.49124265 2.16629796 3.59924482 3.69376977 4 7 C3.5625 9.25 3.5625 9.25 3 11 C2.34 11 1.68 11 1 11 C-0.32 8.36 -1.64 5.72 -3 3 C-2.01 2.67 -1.02 2.34 0 2 C0 1.34 0 0.68 0 0 Z " fill="#DA434A" transform="translate(195,299)"/>
<path d="M0 0 C1.32 0.33 2.64 0.66 4 1 C4 1.99 4 2.98 4 4 C5.32 4 6.64 4 8 4 C7.67 5.32 7.34 6.64 7 8 C5.02 7.34 3.04 6.68 1 6 C0.67 4.02 0.34 2.04 0 0 Z " fill="#CB2129" transform="translate(239,374)"/>
<path d="M0 0 C1.32 0 2.64 0 4 0 C3.67 1.98 3.34 3.96 3 6 C2.01 5.67 1.02 5.34 0 5 C-0.33 6.32 -0.66 7.64 -1 9 C-1.66 8.67 -2.32 8.34 -3 8 C-1.125 1.125 -1.125 1.125 0 0 Z " fill="#C52526" transform="translate(300,304)"/>
<path d="M0 0 C1.32 0.66 2.64 1.32 4 2 C2.43358249 6.30764815 0.31663844 10.06171464 -2 14 C-3.49341969 11.01316063 -2.40648676 9.04839022 -1.5625 5.875 C-1.27503906 4.77929688 -0.98757813 3.68359375 -0.69140625 2.5546875 C-0.46324219 1.71164062 -0.23507812 0.86859375 0 0 Z " fill="#D6757A" transform="translate(306,296)"/>
<path d="M0 0 C0.66 0 1.32 0 2 0 C1.53439347 4.74918662 0.83067342 8.10782405 -2 12 C-2.33 12 -2.66 12 -3 12 C-3 9.36 -3 6.72 -3 4 C-2.01 3.67 -1.02 3.34 0 3 C0 2.01 0 1.02 0 0 Z " fill="#D46A70" transform="translate(317,278)"/>
<path d="M0 0 C1.36420006 4.09260018 -0.2335485 6.47012659 -1.9375 10.1875 C-2.22818359 10.84169922 -2.51886719 11.49589844 -2.81835938 12.16992188 C-3.53695343 13.78381344 -4.2673588 15.39243655 -5 17 C-5.33 17 -5.66 17 -6 17 C-6 15.02 -6 13.04 -6 11 C-5.34 11 -4.68 11 -4 11 C-4 8.69 -4 6.38 -4 4 C-3.01 4 -2.02 4 -1 4 C-0.67 2.68 -0.34 1.36 0 0 Z " fill="#D5777A" transform="translate(339,233)"/>
<path d="M0 0 C2.64 0.33 5.28 0.66 8 1 C7.95875 1.78375 7.9175 2.5675 7.875 3.375 C7.71271266 6.16116119 7.71271266 6.16116119 10 8 C9.01 8 8.02 8 7 8 C6.67 7.01 6.34 6.02 6 5 C4.67532254 4.3162955 3.34136367 3.65035814 2 3 C1.34 2.01 0.68 1.02 0 0 Z " fill="#DE6064" transform="translate(277,161)"/>
<path d="M0 0 C0.99 0.33 1.98 0.66 3 1 C1.53967505 6.31027254 -0.98320986 10.46330032 -4 15 C-5.43088528 12.13822943 -4.59991697 10.06624227 -4 7 C-3.01 7 -2.02 7 -1 7 C-0.67 4.69 -0.34 2.38 0 0 Z " fill="#DD8187" transform="translate(300,309)"/>
<path d="M0 0 C0.66 0.33 1.32 0.66 2 1 C2 1.99 2 2.98 2 4 C2.99 4 3.98 4 5 4 C5.66 5.65 6.32 7.3 7 9 C3.2089881 7.55049545 -0.3874638 5.84827434 -4 4 C-2.68 2.68 -1.36 1.36 0 0 Z " fill="#E06265" transform="translate(270,152)"/>
<path d="M0 0 C5.76253298 5.31926121 5.76253298 5.31926121 6 9 C5.68933977 10.33879764 5.35858516 11.67323492 5 13 C4.15930585 11.39967863 3.32768495 9.79458829 2.5 8.1875 C1.80390625 6.84751953 1.80390625 6.84751953 1.09375 5.48046875 C0 3 0 3 0 0 Z " fill="#EA9194" transform="translate(167,251)"/>
<path d="M0 0 C0.33 0.66 0.66 1.32 1 2 C-1.30482304 6.8755872 -2.98208429 9.63042869 -8 12 C-6.50079488 8.88626628 -4.91847864 5.87771795 -3 3 C-2.34 3 -1.68 3 -1 3 C-0.67 2.01 -0.34 1.02 0 0 Z " fill="#DE8083" transform="translate(291,216)"/>
<path d="M0 0 C0.66 0.33 1.32 0.66 2 1 C0.68 1.33 -0.64 1.66 -2 2 C-2 2.66 -2 3.32 -2 4 C-8.96428571 7.34821429 -8.96428571 7.34821429 -13 6 C-10.87959258 4.96966118 -8.75352092 3.95097146 -6.625 2.9375 C-5.44164062 2.36902344 -4.25828125 1.80054687 -3.0390625 1.21484375 C-2.03617188 0.81394531 -1.03328125 0.41304688 0 0 Z " fill="#CB343B" transform="translate(216,111)"/>
<path d="M0 0 C0.33 0.66 0.66 1.32 1 2 C0.00390625 4.3828125 0.00390625 4.3828125 -1.4375 7.125 C-1.91058594 8.03507812 -2.38367188 8.94515625 -2.87109375 9.8828125 C-3.24363281 10.58148438 -3.61617188 11.28015625 -4 12 C-5.26132231 8.21603308 -4.91214879 5.85909105 -4 2 C-1.9375 0.5625 -1.9375 0.5625 0 0 Z " fill="#BB2830" transform="translate(326,262)"/>
<path d="M0 0 C3.55007718 3.9050849 4.81819916 6.97734643 6 12 C5.01 12 4.02 12 3 12 C2.34 10.35 1.68 8.7 1 7 C0.67 7 0.34 7 0 7 C0 4.69 0 2.38 0 0 Z " fill="#D9585F" transform="translate(205,208)"/>
<path d="M0 0 C4.29 0 8.58 0 13 0 C13.33 0.99 13.66 1.98 14 3 C14.99 3.33 15.98 3.66 17 4 C14.69 3.67 12.38 3.34 10 3 C10 2.34 10 1.68 10 1 C6.7 1 3.4 1 0 1 C0 0.67 0 0.34 0 0 Z " fill="#DA6A6F" transform="translate(248,151)"/>
<path d="M0 0 C2.97 1.32 5.94 2.64 9 4 C5.78767875 5.07077375 3.36062193 5 0 5 C-0.99 5.33 -1.98 5.66 -3 6 C-3 5.34 -3 4.68 -3 4 C-2.01 3.34 -1.02 2.68 0 2 C0 1.34 0 0.68 0 0 Z " fill="#CF2E38" transform="translate(288,113)"/>
<path d="M0 0 C0.99 0.33 1.98 0.66 3 1 C2.875 2.8125 2.875 2.8125 2 5 C-1.0625 6.75 -1.0625 6.75 -4 8 C-2.66666667 5.33333333 -1.33333333 2.66666667 0 0 Z " fill="#CA2324" transform="translate(328,240)"/>
<path d="M0 0 C0.33 0 0.66 0 1 0 C1.08086147 1.79093191 1.13912702 3.58289628 1.1875 5.375 C1.22230469 6.37273437 1.25710937 7.37046875 1.29296875 8.3984375 C1.19628906 9.25695312 1.09960938 10.11546875 1 11 C0.01 11.66 -0.98 12.32 -2 13 C-1.85769192 11.58297487 -1.71099254 10.1663904 -1.5625 8.75 C-1.48128906 7.96109375 -1.40007812 7.1721875 -1.31640625 6.359375 C-1.02365007 4.17635361 -0.57935581 2.1226818 0 0 Z " fill="#D03944" transform="translate(156,180)"/>
<path d="M0 0 C2.3828125 0.2421875 2.3828125 0.2421875 5.125 0.875 C6.03507812 1.07867187 6.94515625 1.28234375 7.8828125 1.4921875 C8.58148438 1.65976563 9.28015625 1.82734375 10 2 C7.75700222 3.36398513 6.50929167 4.05762059 3.859375 3.7578125 C1.90625 3.171875 -0.046875 2.5859375 -2 2 C-1.34 1.34 -0.68 0.68 0 0 Z " fill="#DD575F" transform="translate(270,107)"/>
<path d="M0 0 C5.78461538 4.18461538 5.78461538 4.18461538 6.875 8.3125 C6.936875 9.6428125 6.936875 9.6428125 7 11 C4.0444623 8.24829249 1.88436685 5.58029701 0 2 C0 1.34 0 0.68 0 0 Z " fill="#EFB5B8" transform="translate(228,362)"/>
<path d="M0 0 C1.65 0 3.3 0 5 0 C4.67 2.31 4.34 4.62 4 7 C2 6 2 6 0.875 2.9375 C0.58625 1.968125 0.2975 0.99875 0 0 Z " fill="#D66B70" transform="translate(240,380)"/>
<path d="M0 0 C2.475 0.495 2.475 0.495 5 1 C5 1.99 5 2.98 5 4 C5.66 4 6.32 4 7 4 C6.67 4.99 6.34 5.98 6 7 C3.95880212 5.38405168 1.95927063 3.7143618 0 2 C0 1.34 0 0.68 0 0 Z " fill="#CA3741" transform="translate(227,360)"/>
<path d="M0 0 C1.32 0.33 2.64 0.66 4 1 C4.625 2.875 4.625 2.875 5 5 C4.34 5.66 3.68 6.32 3 7 C0 2.25 0 2.25 0 0 Z " fill="#E1898A" transform="translate(287,172)"/>
<path d="M0 0 C0.33 0 0.66 0 1 0 C1.3125 2.3125 1.3125 2.3125 1 5 C-1.5 6.8125 -1.5 6.8125 -4 8 C-4 7.01 -4 6.02 -4 5 C-3.34 5 -2.68 5 -2 5 C-1.34 3.35 -0.68 1.7 0 0 Z " fill="#E4858B" transform="translate(168,149)"/>
<path d="M0 0 C0 3.99904969 -1.72586967 5.80200422 -4 9 C-4.33 7.68 -4.66 6.36 -5 5 C-4.34 5 -3.68 5 -3 5 C-3 3.68 -3 2.36 -3 1 C-2.01 0.67 -1.02 0.34 0 0 Z " fill="#D77F81" transform="translate(260,379)"/>
<path d="M0 0 C0.99 0 1.98 0 3 0 C1.125 4.75 1.125 4.75 0 7 C-0.66 7 -1.32 7 -2 7 C-2 5.68 -2 4.36 -2 3 C-1.34 3 -0.68 3 0 3 C0 2.01 0 1.02 0 0 Z " fill="#CE6A6D" transform="translate(289,329)"/>
<path d="M0 0 C1.46726798 3.81489674 0.43336419 6.29011622 -1 10 C-3 7 -3 7 -2.75 3.875 C-2.37875 2.451875 -2.37875 2.451875 -2 1 C-1.34 0.67 -0.68 0.34 0 0 Z " fill="#E4898D" transform="translate(343,220)"/>
<path d="M0 0 C0.66 0 1.32 0 2 0 C3.35439668 2.70879335 3.06501451 5.00933268 3 8 C2.67 7.34 2.34 6.68 2 6 C1.34 6 0.68 6 0 6 C0 4.02 0 2.04 0 0 Z " fill="#E81B29" transform="translate(202,208)"/>
<path d="M0 0 C0.66 0 1.32 0 2 0 C2 0.66 2 1.32 2 2 C2.99 2.33 3.98 2.66 5 3 C5.33 4.98 5.66 6.96 6 9 C3.03134491 6.45543849 1.6380249 3.51005335 0 0 Z " fill="#E7969A" transform="translate(219,348)"/>
<path d="M0 0 C-0.66 1.65 -1.32 3.3 -2 5 C-2.66 5 -3.32 5 -4 5 C-4 5.66 -4 6.32 -4 7 C-4.66 7 -5.32 7 -6 7 C-5.37162381 3.35541809 -4.14650034 0 0 0 Z " fill="#C2272F" transform="translate(287,335)"/>
<path d="M0 0 C0.33 1.32 0.66 2.64 1 4 C0.01 4.66 -0.98 5.32 -2 6 C-2.66 5.67 -3.32 5.34 -4 5 C-4 4.34 -4 3.68 -4 3 C-3.34 3 -2.68 3 -2 3 C-2 2.34 -2 1.68 -2 1 C-1.34 0.67 -0.68 0.34 0 0 Z " fill="#E35F68" transform="translate(282,228)"/>
<path d="M0 0 C1.43088528 2.86177057 0.59991697 4.93375773 0 8 C-0.99 8.33 -1.98 8.66 -3 9 C-2.44271087 5.65626525 -1.64826111 2.96687001 0 0 Z " fill="#EEB0B3" transform="translate(163,157)"/>
<path d="M0 0 C4.875 4.625 4.875 4.625 6 8 C5.34 8 4.68 8 4 8 C2.7109375 6.46875 2.7109375 6.46875 1.375 4.5 C0.70597656 3.52546875 0.70597656 3.52546875 0.0234375 2.53125 C-0.31429688 2.0259375 -0.65203125 1.520625 -1 1 C-0.67 0.67 -0.34 0.34 0 0 Z " fill="#EE3338" transform="translate(313,149)"/>
</svg>
